# xmcd
#
# Track frame offsets:
#	150
#	18228
#	34652
#	49468
#	64864
#	77913
#	92806
#	110741
#	129440
#	145555
#	166416
#	186409
#	206015
#	225816
#	243817
#	260833
#	281171
#	297727
#	313613
#	335788
#
# Disc length: 4733 seconds
#
# Revision: 1
# Processed by: cddbd v1.5PL3 Copyright (c) Steve Scherf et al.
# Submitted via: EasyCDDAExtractor 6.5.0.1
#
DISCID=31127b14
DTITLE=София Ротару - Только хиты CD 2
DYEAR=2003
DGENRE=Pop
TTITLE0=Весна
TTITLE1=Край
TTITLE2=Иоанс
TTITLE3=Водограй
TTITLE4=Червона рута
TTITLE5=Скажи, что любишь
TTITLE6=В доме моем
TTITLE7=Была не была
TTITLE8=Горькие слезы
TTITLE9=Ночной мотылек
TTITLE10=Лунная радуга
TTITLE11=Звезды, как звезды
TTITLE12=Судьба
TTITLE13=Поздно
TTITLE14=Снежинка
TTITLE15=Разошлись пути-дороги
TTITLE16=Сделай эту ночь такой
TTITLE17=Чайные розы в купе
TTITLE18=Лебединая верность
TTITLE19=Твои печальные глаза
EXTD=
EXTT0=
EXTT1=
EXTT2=
EXTT3=
EXTT4=
EXTT5=
EXTT6=
EXTT7=
EXTT8=
EXTT9=
EXTT10=
EXTT11=
EXTT12=
EXTT13=
EXTT14=
EXTT15=
EXTT16=
EXTT17=
EXTT18=
EXTT19=
PLAYORDER=
